<svg width="33" height="33" viewBox="0 0 33 33" fill="none" xmlns="http://www.w3.org/2000/svg">
<path d="M13.6882 1.77895C15.2464 0.238928 17.7536 0.238926 19.3118 1.77895L21.3963 3.8391C22.0293 4.46476 22.853 4.86142 23.7368 4.96626L26.6472 5.3115C28.8228 5.56957 30.3859 7.52971 30.1534 9.70816L29.8424 12.6224C29.7479 13.5074 29.9513 14.3987 30.4205 15.1551L31.9651 17.6457C33.1198 19.5076 32.5619 21.9518 30.7138 23.1283L28.2414 24.7021C27.4906 25.18 26.9206 25.8948 26.6217 26.7332L25.6375 29.4937C24.9018 31.5573 22.6429 32.6451 20.5709 31.9337L17.7989 30.982C16.9571 30.6929 16.0429 30.6929 15.2011 30.982L12.4292 31.9337C10.3571 32.6451 8.09822 31.5573 7.36251 29.4937L6.37832 26.7332C6.07942 25.8948 5.50944 25.18 4.75859 24.7021L2.28625 23.1283C0.438107 21.9518 -0.119782 19.5076 1.03489 17.6457L2.57955 15.1551C3.04866 14.3987 3.25209 13.5074 3.15762 12.6224L2.84659 9.70816C2.61408 7.52972 4.17725 5.56957 6.35281 5.3115L9.26316 4.96626C10.147 4.86142 10.9707 4.46476 11.6037 3.8391L13.6882 1.77895Z" fill="#3E1C15"/>
</svg>
