<svg width="312" height="64" viewBox="0 0 312 64" fill="currentColor" xmlns="http://www.w3.org/2000/svg">
<path d="M123.56 46.1758C124.479 46.1758 125.389 46.3562 126.291 46.7192C127.192 47.0807 127.877 47.5434 128.347 48.1066L127.153 49.6402C126.697 49.1561 126.134 48.7718 125.464 48.491C124.793 48.2086 124.108 48.067 123.408 48.067C122.631 48.067 121.996 48.2459 121.5 48.6044C121.003 48.9628 120.754 49.424 120.754 49.9872C120.754 50.3533 120.846 50.6737 121.03 50.9485C121.213 51.2232 121.461 51.4492 121.77 51.6258C122.08 51.8016 122.434 51.9569 122.831 52.0931C123.23 52.2301 123.651 52.3587 124.097 52.482C124.544 52.6053 124.987 52.7355 125.429 52.8755C125.871 53.014 126.292 53.1868 126.69 53.3915C127.087 53.5978 127.441 53.8375 127.751 54.1145C128.06 54.3893 128.308 54.7416 128.492 55.1694C128.675 55.5978 128.768 56.0865 128.768 56.6375C128.768 57.2007 128.646 57.738 128.405 58.2502C128.164 58.7616 127.826 59.2099 127.394 59.5935C126.962 59.9793 126.423 60.2845 125.777 60.509C125.13 60.7351 124.426 60.8477 123.665 60.8477C122.59 60.8477 121.551 60.6384 120.552 60.2206C119.551 59.8028 118.721 59.2578 118.062 58.5889L119.338 57.1253C120.67 58.3461 122.113 58.9565 123.665 58.9565C124.555 58.9565 125.284 58.7426 125.849 58.3156C126.413 57.8871 126.696 57.3346 126.696 56.658C126.696 56.3056 126.605 55.9974 126.425 55.7318C126.245 55.4662 126 55.2523 125.69 55.0895C125.38 54.9273 125.027 54.7812 124.628 54.6518C124.231 54.5225 123.813 54.3999 123.373 54.2827C122.934 54.167 122.496 54.0415 122.056 53.9045C121.617 53.769 121.198 53.5978 120.801 53.3915C120.402 53.1868 120.049 52.9478 119.739 52.6746C119.429 52.4029 119.184 52.0505 119.004 51.6152C118.824 51.1806 118.734 50.6844 118.734 50.1273C118.734 48.9933 119.19 48.0503 120.102 47.3006C121.012 46.5502 122.165 46.1758 123.56 46.1758Z" fill="white"/>
<path d="M146.582 46.1758C147.61 46.1758 148.581 46.3638 149.496 46.739C150.412 47.1142 151.198 47.6241 151.855 48.271C152.512 48.9179 153.03 49.6935 153.411 50.5953C153.791 51.4987 153.983 52.4569 153.983 53.4722C153.983 54.5004 153.791 55.4715 153.411 56.384C153.03 57.2966 152.512 58.0782 151.855 58.7327C151.198 59.3857 150.412 59.9017 149.496 60.28C148.581 60.6597 147.61 60.8477 146.582 60.8477C145.549 60.8477 144.574 60.6597 143.659 60.28C142.744 59.9017 141.96 59.3857 141.307 58.7327C140.653 58.0782 140.136 57.2966 139.755 56.384C139.374 55.4715 139.184 54.4996 139.184 53.4722C139.184 52.1182 139.506 50.8838 140.149 49.7696C140.792 48.6553 141.679 47.7778 142.812 47.137C143.945 46.4962 145.202 46.1758 146.582 46.1758ZM149.288 48.7794C148.471 48.3045 147.569 48.067 146.582 48.067C145.597 48.067 144.696 48.3037 143.878 48.7794C143.063 49.2528 142.421 49.9058 141.954 50.7346C141.489 51.5634 141.256 52.4759 141.256 53.4722C141.256 55.0179 141.768 56.3186 142.792 57.3742C143.816 58.429 145.078 58.9565 146.582 58.9565C148.087 58.9565 149.35 58.4298 150.375 57.3742C151.399 56.3193 151.911 55.0179 151.911 53.4722C151.911 52.4759 151.677 51.5634 151.212 50.7346C150.745 49.9058 150.103 49.2528 149.288 48.7794Z" fill="white"/>
<path d="M165.075 46.374H167.105V58.7764H174.301V60.6487H165.075V46.374V46.374Z" fill="white"/>
<path d="M193.564 59.2552C192.493 60.3161 191.146 60.8481 189.528 60.8481C187.909 60.8481 186.564 60.3169 185.491 59.2552C184.421 58.1942 183.885 56.8623 183.885 55.2633V46.374H185.914V55.2633C185.914 56.3182 186.257 57.1942 186.94 57.8913C187.625 58.5885 188.488 58.9355 189.528 58.9355C190.569 58.9355 191.433 58.5877 192.121 57.8913C192.808 57.1942 193.152 56.3182 193.152 55.2633V46.374H195.172V55.2633C195.172 56.8623 194.636 58.1935 193.564 59.2552Z" fill="white"/>
<path d="M217.195 46.374V48.2554H212.56V60.6487H210.531V48.2554H205.888V46.374H217.195V46.374Z" fill="white"/>
<path d="M227.909 46.374H229.939V60.6487H227.909V46.374Z" fill="white"/>
<path d="M248.432 46.1758C249.46 46.1758 250.43 46.3638 251.346 46.739C252.261 47.1142 253.047 47.6241 253.704 48.271C254.361 48.9179 254.88 49.6935 255.261 50.5953C255.641 51.4987 255.832 52.4569 255.832 53.4722C255.832 54.5004 255.641 55.4715 255.261 56.384C254.88 57.2966 254.361 58.0782 253.704 58.7327C253.047 59.3857 252.261 59.9017 251.346 60.28C250.43 60.6597 249.459 60.8477 248.432 60.8477C247.398 60.8477 246.424 60.6597 245.509 60.28C244.594 59.9017 243.809 59.3857 243.157 58.7327C242.503 58.0782 241.986 57.2966 241.605 56.384C241.223 55.4715 241.033 54.4996 241.033 53.4722C241.033 52.1182 241.355 50.8838 241.999 49.7696C242.641 48.6553 243.529 47.7778 244.662 47.137C245.795 46.4962 247.051 46.1758 248.432 46.1758ZM251.138 48.7794C250.321 48.3045 249.419 48.067 248.432 48.067C247.447 48.067 246.545 48.3037 245.728 48.7794C244.913 49.2528 244.271 49.9058 243.804 50.7346C243.339 51.5634 243.105 52.4759 243.105 53.4722C243.105 55.0179 243.617 56.3186 244.641 57.3742C245.665 58.4298 246.928 58.9565 248.432 58.9565C249.936 58.9565 251.2 58.4298 252.224 57.3742C253.249 56.3193 253.76 55.0179 253.76 53.4722C253.76 52.4759 253.527 51.5634 253.062 50.7346C252.594 49.9058 251.953 49.2528 251.138 48.7794Z" fill="white"/>
<path d="M266.925 46.374H268.75L276.313 56.9362V46.374H278.324V60.6487H276.539L268.955 50.1078V60.6487H266.926V46.374H266.925Z" fill="white"/>
<path d="M294.499 46.1758C295.417 46.1758 296.328 46.3562 297.229 46.7192C298.13 47.0807 298.816 47.5434 299.285 48.1066L298.092 49.6402C297.636 49.1561 297.073 48.7718 296.403 48.491C295.732 48.2086 295.047 48.067 294.347 48.067C293.57 48.067 292.935 48.2459 292.438 48.6044C291.942 48.9628 291.693 49.424 291.693 49.9872C291.693 50.3533 291.784 50.6737 291.968 50.9485C292.152 51.2232 292.4 51.4492 292.708 51.6258C293.018 51.8016 293.373 51.9569 293.77 52.0931C294.168 52.2301 294.59 52.3587 295.035 52.482C295.483 52.6053 295.926 52.7355 296.368 52.8755C296.81 53.014 297.23 53.1868 297.629 53.3915C298.026 53.5977 298.379 53.8375 298.689 54.1145C298.999 54.3893 299.246 54.7416 299.43 55.1694C299.614 55.5978 299.706 56.0864 299.706 56.6375C299.706 57.2007 299.585 57.738 299.343 58.2502C299.102 58.7616 298.764 59.2099 298.333 59.5935C297.9 59.9793 297.361 60.2845 296.716 60.509C296.068 60.7351 295.364 60.8477 294.603 60.8477C293.528 60.8477 292.49 60.6384 291.49 60.2206C290.489 59.8028 289.659 59.2578 289 58.5889L290.276 57.1253C291.608 58.3461 293.051 58.9565 294.603 58.9565C295.494 58.9565 296.222 58.7426 296.788 58.3156C297.351 57.8871 297.634 57.3346 297.634 56.658C297.634 56.3056 297.544 55.9974 297.364 55.7318C297.183 55.4662 296.938 55.2523 296.628 55.0894C296.318 54.9273 295.965 54.7812 295.567 54.6518C295.17 54.5224 294.751 54.3999 294.312 54.2827C293.873 54.167 293.434 54.0415 292.995 53.9045C292.556 53.769 292.137 53.5977 291.74 53.3915C291.341 53.1868 290.988 52.9478 290.678 52.6746C290.368 52.4029 290.122 52.0505 289.943 51.6152C289.762 51.1806 289.672 50.6844 289.672 50.1273C289.672 48.9933 290.128 48.0503 291.04 47.3006C291.95 46.5502 293.104 46.1758 294.499 46.1758Z" fill="white"/>
<path d="M120.788 29.3203V6.68143C120.788 5.50634 121.055 4.62349 121.588 4.03595C122.12 3.4484 122.809 3.15234 123.657 3.15234C124.527 3.15234 125.234 3.44383 125.773 4.02453C126.315 4.60751 126.583 5.4934 126.583 6.68067V29.3195C126.583 30.5075 126.315 31.3972 125.773 31.9848C125.234 32.5723 124.527 32.8661 123.657 32.8661C122.822 32.8661 122.138 32.57 121.597 31.9741C121.056 31.3805 120.788 30.4954 120.788 29.3203Z" fill="#FFFFFD"/>
<path d="M140.934 6.64283L152.078 23.5774V6.48605C152.078 5.37641 152.316 4.54304 152.79 3.98669C153.264 3.43187 153.906 3.15332 154.712 3.15332C155.546 3.15332 156.203 3.43187 156.683 3.98669C157.164 4.5438 157.407 5.37717 157.407 6.48605V29.0838C157.407 31.6075 156.365 32.8671 154.283 32.8671C153.763 32.8671 153.295 32.7932 152.879 32.6433C152.461 32.4934 152.072 32.2536 151.708 31.9279C151.344 31.6014 151.006 31.2186 150.692 30.7817C150.379 30.3441 150.068 29.8966 149.756 29.4392L138.885 12.7002V29.5366C138.885 30.6333 138.632 31.4644 138.125 32.0253C137.616 32.587 136.966 32.8671 136.173 32.8671C135.352 32.8671 134.695 32.5839 134.202 32.0139C133.708 31.4461 133.459 30.6196 133.459 29.5359V7.36737C133.459 6.42745 133.563 5.68997 133.773 5.15265C134.02 4.56511 134.429 4.08411 135.001 3.71271C135.573 3.3413 136.193 3.15332 136.856 3.15332C137.376 3.15332 137.822 3.24008 138.192 3.4098C138.563 3.57952 138.888 3.80784 139.169 4.09477C139.449 4.38169 139.735 4.75385 140.027 5.2105C140.319 5.67018 140.622 6.14661 140.934 6.64283Z" fill="#FFFFFD"/>
<path d="M181.165 8.13235H169.749V15.4813H179.294C180.178 15.4813 180.838 15.6814 181.274 16.0795C181.71 16.4775 181.928 17.0102 181.928 17.6762C181.928 18.3444 181.707 18.8726 181.263 19.2645C180.821 19.6565 180.165 19.8521 179.294 19.8521H169.749V29.3198C169.749 30.5208 169.478 31.4128 168.939 31.9935C168.399 32.5742 167.706 32.8656 166.862 32.8656C166.001 32.8656 165.302 32.5719 164.762 31.9843C164.223 31.3968 163.952 30.5071 163.952 29.3191V7.20993C163.952 6.37428 164.076 5.6916 164.325 5.16265C164.572 4.63371 164.958 4.24861 165.486 4.00506C166.013 3.7638 166.686 3.64355 167.505 3.64355H181.166C182.091 3.64355 182.778 3.84828 183.226 4.25926C183.674 4.67252 183.899 5.20984 183.899 5.87806C183.899 6.55694 183.674 7.10262 183.226 7.51436C182.777 7.92534 182.09 8.13235 181.165 8.13235Z" fill="#FFFFFD"/>
<path d="M196.512 29.3203V20.2049L189.525 9.32691C188.914 8.34818 188.481 7.58406 188.228 7.03381C187.975 6.48584 187.847 6.0094 187.847 5.60452C187.847 4.93629 188.104 4.36245 188.618 3.87917C189.132 3.39589 189.766 3.15234 190.523 3.15234C191.315 3.15234 191.918 3.37838 192.327 3.82894C192.736 4.28177 193.352 5.17984 194.171 6.52465L199.52 15.2465L204.925 6.52465C205.25 5.98962 205.525 5.53906 205.745 5.17147C205.967 4.80615 206.209 4.46443 206.477 4.1425C206.744 3.82285 207.038 3.5793 207.363 3.40959C207.691 3.23987 208.087 3.1531 208.555 3.1531C209.282 3.1531 209.892 3.39208 210.379 3.86851C210.868 4.34723 211.111 4.89748 211.111 5.52612C211.111 6.03528 210.987 6.54444 210.74 7.05359C210.493 7.56503 210.071 8.26979 209.471 9.17013L202.309 20.2041V29.3195C202.309 30.5075 202.036 31.3972 201.49 31.9848C200.942 32.5723 200.246 32.8661 199.401 32.8661C198.541 32.8661 197.846 32.5746 197.313 31.9939C196.778 31.4132 196.512 30.5212 196.512 29.3203Z" fill="#FFFFFD"/>
<path d="M222.984 6.64283L234.127 23.5774V6.48605C234.127 5.37641 234.365 4.54304 234.84 3.98669C235.314 3.43187 235.955 3.15332 236.762 3.15332C237.596 3.15332 238.252 3.43187 238.733 3.98669C239.214 4.5438 239.457 5.37717 239.457 6.48605V29.0838C239.457 31.6075 238.415 32.8671 236.333 32.8671C235.813 32.8671 235.345 32.7932 234.929 32.6433C234.511 32.4934 234.121 32.2536 233.758 31.9279C233.394 31.6014 233.056 31.2186 232.741 30.7817C232.429 30.3441 232.118 29.8966 231.805 29.4392L220.935 12.6994V29.5359C220.935 30.6326 220.682 31.4637 220.175 32.0246C219.666 32.5862 219.016 32.8663 218.223 32.8663C217.402 32.8663 216.745 32.5832 216.251 32.0131C215.757 31.4454 215.509 30.6189 215.509 29.5351V7.36737C215.509 6.42745 215.613 5.68997 215.823 5.15265C216.07 4.56511 216.48 4.08411 217.052 3.71271C217.624 3.34054 218.243 3.15332 218.906 3.15332C219.426 3.15332 219.872 3.24008 220.243 3.4098C220.614 3.57952 220.939 3.80784 221.22 4.09477C221.5 4.38169 221.785 4.75385 222.078 5.2105C222.369 5.67018 222.672 6.14661 222.984 6.64283Z" fill="#FFFFFD"/>
<path d="M253.672 6.64283L264.815 23.5774V6.48605C264.815 5.37641 265.053 4.54304 265.527 3.98669C266.002 3.43187 266.643 3.15332 267.449 3.15332C268.284 3.15332 268.94 3.43187 269.42 3.98669C269.902 4.5438 270.144 5.37717 270.144 6.48605V29.0838C270.144 31.6075 269.102 32.8671 267.02 32.8671C266.5 32.8671 266.033 32.7932 265.617 32.6433C265.198 32.4934 264.809 32.2536 264.445 31.9279C264.081 31.6014 263.743 31.2186 263.429 30.7817C263.117 30.3441 262.805 29.8966 262.493 29.4392L251.622 12.7002V29.5366C251.622 30.6333 251.369 31.4644 250.862 32.0253C250.353 32.587 249.704 32.8671 248.91 32.8671C248.089 32.8671 247.432 32.5839 246.939 32.0139C246.445 31.4461 246.196 30.6196 246.196 29.5359V7.36737C246.196 6.42745 246.3 5.68997 246.51 5.15265C246.757 4.56511 247.166 4.08411 247.739 3.71271C248.311 3.34054 248.93 3.15332 249.593 3.15332C250.113 3.15332 250.559 3.24008 250.93 3.4098C251.3 3.57952 251.625 3.80784 251.907 4.09477C252.186 4.38169 252.472 4.75385 252.765 5.2105C253.056 5.67018 253.359 6.14661 253.672 6.64283Z" fill="#FFFFFD"/>
<path d="M289.394 3.15332C292.362 3.15332 294.907 3.75837 297.035 4.96771C299.162 6.17477 300.774 7.89403 301.866 10.1217C302.96 12.3493 303.506 14.9667 303.506 17.9714C303.506 20.1929 303.207 22.2113 302.607 24.028C302.009 25.8447 301.113 27.4193 299.915 28.7512C298.719 30.0846 297.248 31.1029 295.504 31.8099C293.76 32.5147 291.762 32.8671 289.512 32.8671C287.274 32.8671 285.27 32.5056 283.502 31.7795C281.732 31.055 280.255 30.0328 279.072 28.7116C277.886 27.3934 276.992 25.8051 276.387 23.9496C275.781 22.0941 275.479 20.0879 275.479 17.9318C275.479 15.7239 275.793 13.698 276.426 11.8577C277.057 10.0151 277.971 8.44657 279.169 7.15199C280.365 5.85969 281.823 4.86954 283.541 4.18229C285.256 3.49656 287.209 3.15332 289.394 3.15332ZM297.63 17.9318C297.63 15.8282 297.292 14.007 296.616 12.465C295.938 10.9223 294.972 9.75637 293.718 8.96638C292.461 8.17411 291.021 7.78063 289.393 7.78063C288.237 7.78063 287.166 7.9983 286.183 8.43516C285.202 8.87429 284.355 9.51207 283.647 10.3477C282.938 11.1834 282.38 12.2512 281.968 13.5526C281.559 14.8517 281.355 16.313 281.355 17.9318C281.355 19.5658 281.559 21.0431 281.968 22.3612C282.38 23.6817 282.958 24.7761 283.706 25.6445C284.453 26.5144 285.313 27.1651 286.282 27.5959C287.253 28.0267 288.316 28.242 289.473 28.242C290.957 28.242 292.319 27.8699 293.563 27.1263C294.804 26.3805 295.794 25.2312 296.529 23.6756C297.262 22.1192 297.63 20.2051 297.63 17.9318Z" fill="#FFFFFD"/>
<path d="M101.46 18.2046C99.6378 18.2046 98.1638 19.6849 98.1638 21.5153V47.7547C98.1638 50.2861 96.8065 52.4483 94.5376 53.5389C92.2686 54.6295 89.7283 54.357 87.77 52.7595L61.9011 31.9808L86.6454 11.2591C87.5184 10.6556 88.0997 9.66236 88.0997 8.51315C88.0997 6.68277 86.6257 5.20249 84.8031 5.20249C84.1241 5.20249 83.4845 5.41635 82.9608 5.7672C82.8835 5.80601 82.8251 5.86462 82.7471 5.92322L56.6266 27.7348L29.5944 6.04043C25.6582 2.866 20.4025 2.26247 15.8653 4.46272C11.3084 6.64395 8.49609 11.1617 8.49609 16.2251V47.754C8.49609 52.8174 11.3077 57.3161 15.8653 59.5163C20.4033 61.6976 25.6771 61.094 29.5944 57.9386L56.6266 36.2245L83.6391 57.9386C86.005 59.8474 88.8553 60.8208 91.7449 60.8208C93.6456 60.8208 95.5841 60.3923 97.3886 59.5163C101.945 57.3161 104.757 52.8174 104.757 47.754V21.5153C104.757 19.6849 103.283 18.2046 101.46 18.2046ZM25.4831 52.7595C23.5051 54.3563 20.9838 54.6295 18.7156 53.5389C16.4466 52.4483 15.0893 50.2868 15.0893 47.7547V16.2258C15.0893 13.6945 16.4466 11.5133 18.7156 10.4227C19.6273 9.99419 20.5768 9.78033 21.5082 9.78033C22.9239 9.78033 24.3009 10.2476 25.4839 11.202L51.352 31.9808L25.4831 52.7595ZM104.758 6.46434C104.758 8.29244 103.282 9.775 101.461 9.775C99.6409 9.775 98.1646 8.29244 98.1646 6.46434C98.1646 4.63625 99.6409 3.15368 101.461 3.15368C103.282 3.15368 104.758 4.63549 104.758 6.46434Z" fill="url(#paint0_linear_3018_118559)"/>
<defs>
<linearGradient id="paint0_linear_3018_118559" x1="8.49603" y1="31.9878" x2="104.758" y2="31.9878" gradientUnits="userSpaceOnUse">
<stop stop-color="white"/>
<stop offset="0.5" stop-color="white"/>
<stop offset="1" stop-color="white"/>
</linearGradient>
</defs>
</svg>
